HIERARCHY
ROOT joint_Root
{
	OFFSET 0.0 0.0 0.0
	CHANNELS 6 Xposition Yposition Zposition Zrotation Xrotation Yrotation 
	JOINT Hips
	{
		OFFSET 4.5925 91.4895 -427.239
		CHANNELS 6 Xposition Yposition Zposition Zrotation Xrotation Yrotation 
		JOINT Spine
		{
			OFFSET 15.7357 0.0 0.0
			CHANNELS 6 Xposition Yposition Zposition Zrotation Xrotation Yrotation 
			JOINT Chest
			{
				OFFSET 8.98455 -0.406207 0.0
				CHANNELS 6 Xposition Yposition Zposition Zrotation Xrotation Yrotation 
				JOINT Neck
				{
					OFFSET 16.3773 0.0 0.0
					CHANNELS 6 Xposition Yposition Zposition Zrotation Xrotation Yrotation 
					JOINT Head
					{
						OFFSET 6.45672 0.0 0.0
						CHANNELS 6 Xposition Yposition Zposition Zrotation Xrotation Yrotation 
						End Site
						{
							OFFSET 0.0 0.0 0.0
						}
					}
				}
				JOINT Shoulder_L
				{
					OFFSET 12.9942 -0.242716 4.98039
					CHANNELS 6 Xposition Yposition Zposition Zrotation Xrotation Yrotation 
					JOINT UpperArm_L
					{
						OFFSET 5.34809 0.0 0.0
						CHANNELS 6 Xposition Yposition Zposition Zrotation Xrotation Yrotation 
						JOINT LowerArm_L
						{
							OFFSET 24.3286 1.87007e-05 0.0
							CHANNELS 6 Xposition Yposition Zposition Zrotation Xrotation Yrotation 
							JOINT Hand_L
							{
								OFFSET 22.2916 0.0 0.0
								CHANNELS 6 Xposition Yposition Zposition Zrotation Xrotation Yrotation 
								End Site
								{
									OFFSET 0.0 0.0 0.0
								}
							}
						}
					}
				}
				JOINT Shoulder_R
				{
					OFFSET 12.9945 -0.242716 -4.98039
					CHANNELS 6 Xposition Yposition Zposition Zrotation Xrotation Yrotation 
					JOINT UpperArm_R
					{
						OFFSET -5.34813 0.0 0.0
						CHANNELS 6 Xposition Yposition Zposition Zrotation Xrotation Yrotation 
						JOINT LowerArm_R
						{
							OFFSET -24.3289 0.000322201 0.0
							CHANNELS 6 Xposition Yposition Zposition Zrotation Xrotation Yrotation 
							JOINT Hand_R
							{
								OFFSET -22.2915 -0.000108084 0.0
								CHANNELS 6 Xposition Yposition Zposition Zrotation Xrotation Yrotation 
								End Site
								{
									OFFSET 0.0 0.0 0.0
								}
							}
						}
					}
				}
			}
		}
		JOINT UpperLeg_L
		{
			OFFSET -2.19248 -6.46944 0.0
			CHANNELS 6 Xposition Yposition Zposition Zrotation Xrotation Yrotation 
			JOINT LowerLeg_L
			{
				OFFSET 39.0811 0.0 -1.23785e-05
				CHANNELS 6 Xposition Yposition Zposition Zrotation Xrotation Yrotation 
				JOINT Foot_L
				{
					OFFSET 40.9854 0.0 -1.26872e-05
					CHANNELS 6 Xposition Yposition Zposition Zrotation Xrotation Yrotation 
					JOINT Toes_L
					{
						OFFSET 11.7543 0.0 0.0
						CHANNELS 6 Xposition Yposition Zposition Zrotation Xrotation Yrotation 
						End Site
						{
							OFFSET 0.0 0.0 0.0
						}
					}
				}
			}
		}
		JOINT UpperLeg_R
		{
			OFFSET -2.19251 6.46944 0.0
			CHANNELS 6 Xposition Yposition Zposition Zrotation Xrotation Yrotation 
			JOINT LowerLeg_R
			{
				OFFSET -39.0811 -0.00228153 -0.0401928
				CHANNELS 6 Xposition Yposition Zposition Zrotation Xrotation Yrotation 
				JOINT Foot_R
				{
					OFFSET -40.9854 0.0 0.0
					CHANNELS 6 Xposition Yposition Zposition Zrotation Xrotation Yrotation 
					JOINT Toes_R
					{
						OFFSET -11.7543 0.0 0.0
						CHANNELS 6 Xposition Yposition Zposition Zrotation Xrotation Yrotation 
						End Site
						{
							OFFSET 0.0 0.0 0.0
						}
					}
				}
			}
		}
	}
}
MOTION
Frames:	4
Frame Time:	0.0333333
0.000000 0.000000 0.000000 0.000000 0.000000 -0.000000 1.963930 83.258100 -467.539000 92.676200 1.886200 -10.068500 15.735700 0.000005 -0.000001 93.978900 82.674100 -96.194700 8.984550 -0.406207 -0.000000 6.875170 1.030440 -4.488820 16.377300 -0.000001 -0.000001 -5.050050 -4.693440 -0.369465 6.456720 -0.000001 -0.000000 -12.809700 -7.047280 -0.861431 12.994200 -0.242716 4.980390 -91.466600 4.203330 -70.740000 5.348090 -0.000007 -0.000001 -65.257900 6.290250 4.055210 24.328600 0.000019 0.000005 19.286500 -1.999140 -95.693400 22.291600 -0.000001 0.000005 11.980600 5.494800 -6.324360 12.994500 -0.242716 -4.980390 88.372300 10.090200 -80.790100 -5.348130 -0.000001 -0.000004 -63.017300 34.846700 -6.687720 -24.328900 0.000322 -0.000009 -11.276700 -15.520200 -36.690900 -22.291500 -0.000108 -0.000004 14.336100 5.617700 -12.376600 -2.192480 -6.469440 -0.000000 172.843000 -1.189520 -31.448600 39.081100 -0.000007 -0.000012 -0.785677 0.516930 56.659600 40.985400 -0.000006 -0.000013 1.841780 -6.998230 -85.684200 11.754300 -0.000000 0.000003 -0.000169 -0.001606 -16.638400 -2.192510 6.469440 -0.000001 175.242000 2.795710 162.439000 -39.081100 -0.002282 -0.040193 -0.024636 0.004160 81.373800 -40.985400 0.000008 0.000006 1.885750 -2.824920 -50.347100 -11.754300 -0.000006 -0.000006 -0.019956 -0.167043 -23.397700
0.000000 0.000000 0.000000 0.000000 0.000000 -0.000000 1.860450 81.884800 -462.918000 93.194000 3.541920 -10.130100 15.735700 0.000005 -0.000001 90.224400 82.294400 -92.503500 8.984550 -0.406207 -0.000000 7.650460 0.062326 -4.557790 16.377300 -0.000001 -0.000001 -5.062310 -5.471130 -0.429121 6.456720 -0.000001 -0.000000 -12.609100 -7.156330 -0.579251 12.994200 -0.242716 4.980390 -91.984600 6.126530 -72.013000 5.348090 -0.000007 -0.000001 -64.740800 8.121230 -9.250780 24.328600 0.000019 0.000005 19.223500 -3.365800 -99.555900 22.291600 -0.000001 0.000005 12.653000 5.499190 -6.498300 12.994500 -0.242716 -4.980390 87.969200 10.864600 -79.345300 -5.348130 -0.000001 -0.000004 -65.949800 29.843500 1.775460 -24.328900 0.000322 -0.000009 -14.037700 -20.418500 -35.629000 -22.291500 -0.000108 -0.000004 20.244300 5.636670 -13.805000 -2.192480 -6.469440 -0.000000 172.956000 -1.991300 -28.429700 39.081100 -0.000007 -0.000012 -0.917883 0.564544 58.409200 40.985400 -0.000006 -0.000013 2.173620 -5.086570 -90.362000 11.754300 -0.000000 0.000003 -0.000201 -0.001859 -16.647700 -2.192510 6.469440 -0.000001 174.963000 2.277110 152.521000 -39.081100 -0.002282 -0.040193 -0.069392 -0.006071 94.704600 -40.985400 0.000008 0.000006 3.725500 -4.067190 -51.948900 -11.754300 -0.000006 -0.000006 -0.019577 -0.164934 -23.310900
0.000000 0.000000 0.000000 0.000000 0.000000 -0.000000 1.502670 81.899300 -457.823000 92.199800 5.494630 -11.042100 15.735700 0.000005 -0.000001 82.702600 82.572900 -84.421800 8.984550 -0.406207 -0.000000 6.944950 -1.868100 -3.321590 16.377300 -0.000001 -0.000001 -4.442770 -5.465680 -0.485151 6.456720 -0.000001 -0.000000 -11.503700 -6.144690 -0.567474 12.994200 -0.242716 4.980390 -91.479300 4.862310 -73.060900 5.348090 -0.000007 -0.000001 -67.125600 10.696600 -19.331000 24.328600 0.000019 0.000005 20.554300 -5.653640 -104.714000 22.291600 -0.000001 0.000005 12.245300 5.518930 -7.329710 12.994500 -0.242716 -4.980390 87.826700 10.122400 -77.814700 -5.348130 -0.000001 -0.000004 -67.875500 27.917900 9.027110 -24.328900 0.000322 -0.000009 -17.144500 -23.440500 -37.792700 -22.291500 -0.000108 -0.000004 20.944600 5.632100 -13.482400 -2.192480 -6.469440 -0.000000 175.193000 -3.276550 -23.908100 39.081100 -0.000007 -0.000012 -0.736174 0.505526 55.524900 40.985400 -0.000006 -0.000013 3.235760 -2.395450 -92.893100 11.754300 -0.000000 0.000003 -0.387197 -0.520326 -16.332300 -2.192510 6.469440 -0.000001 176.563000 2.469390 142.714000 -39.081100 -0.002282 -0.040193 -0.070824 -0.015048 101.406000 -40.985400 0.000008 0.000006 5.032060 -6.616800 -53.795800 -11.754300 -0.000006 -0.000006 -0.020465 -0.169853 -23.513500
0.000000 0.000000 0.000000 0.000000 0.000000 -0.000000 0.999707 83.496300 -451.878000 90.263800 7.359180 -11.883100 15.735700 0.000005 -0.000001 71.224000 82.803200 -71.863000 8.984550 -0.406207 -0.000000 5.850980 -4.610270 -1.041380 16.377300 -0.000001 -0.000001 -4.073440 -5.164370 -0.799927 6.456720 -0.000001 -0.000000 -10.414100 -4.232230 -1.092680 12.994200 -0.242716 4.980390 -90.704200 2.486120 -74.182400 5.348090 -0.000007 -0.000001 -68.518000 14.107400 -25.187100 24.328600 0.000019 0.000005 20.300900 -7.941640 -110.488000 22.291600 -0.000001 0.000005 14.291000 5.512260 -7.035440 12.994500 -0.242716 -4.980390 87.714900 9.333170 -76.175300 -5.348130 -0.000001 -0.000004 -67.708000 29.672500 15.039200 -24.328900 0.000322 -0.000009 -17.002100 -19.170600 -42.965700 -22.291500 -0.000108 -0.000004 18.869600 5.641090 -14.227900 -2.192480 -6.469440 -0.000000 178.327000 -3.735620 -16.144100 39.081100 -0.000007 -0.000012 0.034567 -0.033148 46.197700 40.985400 -0.000006 -0.000013 6.367830 -1.787270 -92.064000 11.754300 -0.000000 0.000003 -1.641730 -2.145900 -15.689200 -2.192510 6.469440 -0.000001 179.596000 2.674740 135.888000 -39.081100 -0.002282 -0.040193 -0.053762 -0.010538 100.371000 -40.985400 0.000008 0.000006 6.655590 -10.207700 -57.304600 -11.754300 -0.000006 -0.000006 -0.019727 -0.165773 -23.345400
